<svg t="1650965539598" class="icon" viewBox="0 0 1024 1024" version="1.1" xmlns="http://www.w3.org/2000/svg" p-id="11082" width="128" height="128"><path d="M541.257143 555.885714H263.314286a43.885714 43.885714 0 0 1 0-87.771428h277.942857a43.885714 43.885714 0 0 1 0 87.771428zM394.971429 789.942857H263.314286a43.885714 43.885714 0 0 1 0-87.771428h131.657143a43.885714 43.885714 0 0 1 0 87.771428zM541.257143 321.828571H263.314286a43.885714 43.885714 0 0 1 0-87.771428h277.942857a43.885714 43.885714 0 0 1 0 87.771428z" p-id="11083"></path><path d="M716.8 87.771429v848.457142H87.771429V87.771429h629.028571M731.428571 0H73.142857a73.142857 73.142857 0 0 0-73.142857 73.142857v877.714286a73.142857 73.142857 0 0 0 73.142857 73.142857h731.428572V73.142857a73.142857 73.142857 0 0 0-73.142858-73.142857zM1024 365.714286v658.285714h-219.428571v-87.771429h131.657142V380.342857H804.571429V292.571429h146.285714a73.142857 73.142857 0 0 1 73.142857 73.142857z" p-id="11084"></path></svg>