<svg t="1650965527246" class="icon" viewBox="0 0 1024 1024" version="1.1" xmlns="http://www.w3.org/2000/svg" p-id="10928" width="128" height="128"><path d="M526.51 453.11h90.88v44.85h-90.88v-44.85z m0 89.76h90.88v59.75h-90.88v-59.75z m0 104.55h90.88v59.91h-90.88v-59.91z m371.71-250.06L566.7 125.23c-30.47-25.09-79.92-25.09-110.39 0L124.85 397.36c-30.52 25.14-30.52 65.69 0 90.78h79.51v336.02c0 50.89 41.22 92.16 92.16 92.16h430.03c50.94 0 92.21-41.27 92.21-92.16V488.14h79.46c30.57-25.09 30.57-65.65 0-90.78zM690.6 752.17H443.1v-44.85h33.43v-86.07c-1.18-1.18-2.15-2.35-3.22-3.58l-28.52 33.53c-9.93-14.49-19.66-28.06-28.83-40.65v156.52h-47.82V608.76a578.469 578.469 0 0 1-36.35 83.56c-4.55-19.15-10.6-39.01-18.18-59.75 16.74-24.98 31.75-54.94 45-89.7h-42.75v-44.9h52.27v-48.33c-14.95 1.43-30.31 2.51-45.57 3.48-1.38-17.51-3.84-32.41-6.71-44.8 40.65-2 86.27-6.81 136.45-15l11.62 44.9c-15.98 3.74-32 6.96-48.03 9.78v50.02h49.25v44.85h-49.25v38.97L429 568.99c11.37 11.88 26.42 28.36 44.23 48.69l3.23-3.84V408.32h190.87v299.01h23.19v44.85h0.08z m0 0" p-id="10929"></path></svg>