<svg t="1650964895632" class="icon" viewBox="0 0 1030 1024" version="1.1" xmlns="http://www.w3.org/2000/svg" p-id="9838" width="128" height="128"><path d="M579.072 727.552H280.576c-14.336 0-25.6-11.264-25.6-25.6s11.264-25.6 25.6-25.6h298.496c14.336 0 25.6 11.264 25.6 25.6s-11.264 25.6-25.6 25.6zM651.264 252.928H229.376c-14.336 0-25.6-11.264-25.6-25.6s11.264-25.6 25.6-25.6h421.888c14.336 0 25.6 11.264 25.6 25.6s-11.264 25.6-25.6 25.6zM651.264 447.488H229.376c-14.336 0-25.6-11.264-25.6-25.6s11.264-25.6 25.6-25.6h421.888c14.336 0 25.6 11.264 25.6 25.6s-11.264 25.6-25.6 25.6zM957.44 998.4c-14.336 0-25.6-11.264-25.6-25.6V45.056c0-14.336 11.264-25.6 25.6-25.6s25.6 11.264 25.6 25.6V972.8c0 14.336-11.264 25.6-25.6 25.6z" p-id="9839"></path><path d="M503.808 841.216c-6.656 0-13.312-2.56-17.92-7.68-10.24-9.728-10.24-26.112 0-36.352l95.232-95.744-95.232-96.256c-9.728-10.24-9.728-26.112 0-36.352 10.24-9.728 26.112-9.728 36.352 0l113.152 114.176c9.728 10.24 9.728 26.112 0 35.84L522.24 832.512c-5.12 6.144-11.776 8.704-18.432 8.704z" p-id="9840"></path><path d="M804.352 998.912H76.8c-14.336 0-25.6-11.264-25.6-25.6V45.056c0-14.336 11.264-25.6 25.6-25.6h727.552c14.336 0 25.6 11.264 25.6 25.6v928.256c0 14.336-11.264 25.6-25.6 25.6zM102.4 947.712h676.352V70.656H102.4v877.056z" p-id="9841"></path></svg>