<svg t="1650965470984" class="icon" viewBox="0 0 1024 1024" version="1.1" xmlns="http://www.w3.org/2000/svg" p-id="10305" width="128" height="128"><path d="M512 970.4c-4 0-8-1.6-11.2-4-20-18.4-488-448.8-496.8-632-3.2-71.2 22.4-139.2 72.8-192 53.6-56 128.8-88.8 207.2-88.8 90.4 0 176 44.8 228 117.6 52-73.6 137.6-117.6 228-117.6 154.4 0 280 125.6 280 280 0 168.8-476.8 613.6-496.8 632.8-3.2 2.4-7.2 4-11.2 4zM284 85.6c-69.6 0-136 28.8-184 78.4-44 46.4-67.2 106.4-64 168 8 155.2 404.8 532.8 476 600 142.4-133.6 476-473.6 476-599.2 0-136.8-111.2-248-248-248-88 0-169.6 47.2-214.4 123.2-3.2 4.8-8 8-13.6 8s-11.2-3.2-13.6-8c-44-75.2-126.4-122.4-214.4-122.4z" p-id="10306"></path><path d="M829.6 469.6c-21.6 0-42.4-8.8-57.6-24l-144-144.8c-32-32-32-83.2 0-115.2s83.2-32 115.2 0L888 330.4c15.2 15.2 24 36 24 57.6s-8.8 42.4-24 57.6c-16 16-36 24-58.4 24zM684.8 178.4c-16.8 0-33.6 6.4-46.4 19.2-25.6 25.6-25.6 67.2 0 92L784 434.4c12 12 28.8 19.2 46.4 19.2 17.6 0 33.6-6.4 46.4-19.2 12-12 19.2-28.8 19.2-46.4 0-17.6-6.4-33.6-19.2-46.4l-145.6-144c-12.8-12.8-29.6-19.2-46.4-19.2z" p-id="10307"></path><path d="M736 405.6c-2.4 0-4-0.8-5.6-2.4l-60-60c-1.6-1.6-2.4-3.2-2.4-5.6 0-2.4 0.8-4 2.4-5.6l104-103.2c1.6-1.6 3.2-2.4 5.6-2.4 2.4 0 4 0.8 5.6 2.4l60 60c3.2 3.2 3.2 8 0 11.2l-104 103.2c-1.6 1.6-4 2.4-5.6 2.4z m-48.8-68l48.8 48.8 92-92-48.8-48.8-92 92z" p-id="10308"></path></svg>