<svg t="1650965504730" class="icon" viewBox="0 0 1024 1024" version="1.1" xmlns="http://www.w3.org/2000/svg" p-id="10615" width="128" height="128"><path d="M608.2 320H225.4c-17.6 0-31.9-14.3-31.9-32s14.3-32 31.9-32h382.9c17.6 0 31.9 14.3 31.9 32-0.1 17.7-14.3 32-32 32zM608.2 512H225.4c-17.6 0-31.9-14.3-31.9-32s14.3-32 31.9-32h382.9c17.6 0 31.9 14.3 31.9 32-0.1 17.7-14.3 32-32 32zM416.8 704H225.4c-17.6 0-31.9-14.3-31.9-32s14.3-32 31.9-32h191.4c17.6 0 31.9 14.3 31.9 32s-14.3 32-31.9 32z" p-id="10616"></path><path d="M159.6 864c-17.6 0-31.9-14.3-31.9-32V192c0-17.7 14.3-32 31.9-32h512.9c17.6 0 31.9 14.3 31.9 32v256c0 17.7 14.3 32 31.9 32 17.6 0 31.9-14.3 31.9-32V160c0-35.3-28.5-64-63.7-64H127.7C92.5 96 64 124.7 64 160v704c0 35.3 28.5 64 63.7 64h353.1c17.6 0 31.9-14.3 31.9-32s-14.3-32-31.9-32H159.6z" p-id="10617"></path><path d="M827.2 757.4l10.7 10.7-23.5 0.1-43.5-64.6 43.5-64.6 23.5 0.1-10.7 10.6 45.2 45.3 87.6-87.7-87.6-87.7-45.2 45.2 10.2 10.3-43-0.2-65 78.5-64.7-78.2H512.8v64h121.9l53.2 64.4-53.2 64.3H512.8v64h151.9l64.7-78.2 65 78.6 43-0.2-10.2 10.2 45.2 45.2 87.6-87.7-87.6-87.7z" p-id="10618"></path></svg>