<svg t="1650965454187" class="icon" viewBox="0 0 1030 1024" version="1.1" xmlns="http://www.w3.org/2000/svg" p-id="10149" width="128" height="128"><path d="M596.48 727.552H297.984c-14.336 0-25.6-11.264-25.6-25.6s11.264-25.6 25.6-25.6h298.496c14.336 0 25.6 11.264 25.6 25.6s-11.264 25.6-25.6 25.6zM630.784 252.928H208.896c-14.336 0-25.6-11.264-25.6-25.6s11.264-25.6 25.6-25.6h421.888c14.336 0 25.6 11.264 25.6 25.6s-11.264 25.6-25.6 25.6zM630.784 447.488H208.896c-14.336 0-25.6-11.264-25.6-25.6s11.264-25.6 25.6-25.6h421.888c14.336 0 25.6 11.264 25.6 25.6s-11.264 25.6-25.6 25.6zM936.96 998.4c-14.336 0-25.6-11.264-25.6-25.6V45.056c0-14.336 11.264-25.6 25.6-25.6s25.6 11.264 25.6 25.6V972.8c0 14.336-11.264 25.6-25.6 25.6z" p-id="10150"></path><path d="M373.248 841.216c-6.656 0-13.312-2.56-17.92-7.68l-113.152-113.664c-9.728-9.728-9.728-26.112 0-35.84l113.152-114.176c9.728-10.24 26.112-10.24 36.352 0 10.24 9.728 10.24 26.112 0 36.352l-95.232 96.256 95.232 95.744c9.728 10.24 9.728 26.112 0 36.352-5.12 4.096-11.776 6.656-18.432 6.656z" p-id="10151"></path><path d="M783.872 998.912H56.32c-14.336 0-25.6-11.264-25.6-25.6V45.056c0-14.336 11.264-25.6 25.6-25.6h727.552c14.336 0 25.6 11.264 25.6 25.6v928.256c0 14.336-11.264 25.6-25.6 25.6zM81.92 947.712h676.352V70.656H81.92v877.056z" p-id="10152"></path></svg>