<svg t="1650965423457" class="icon" viewBox="0 0 1024 1024" version="1.1" xmlns="http://www.w3.org/2000/svg" p-id="9994" width="128" height="128"><path d="M862.231151 783.880177l37.533848-23.629163-13.948687-34.016745-43.037189 9.989515c-6.142907-8.485255-13.616112-16.022928-22.23542-22.499433l9.769504-43.056632-33.910321-14.192234-23.251563 37.287231c-10.632151-1.678222-21.266349-1.721201-31.651884-0.216941l-23.101137-37.331233-34.016745 13.878079 9.327436 42.925648c-8.489348 6.192026-16.09149 13.706163-22.589484 22.369473l-42.61661-10.082636-14.166651 33.889855 36.84414 23.778566c-1.657756 10.634198-1.635243 21.288862-0.088004 31.765471l-37.267788 23.008017 13.927197 34.062793 42.945091-9.372461c6.235005 8.443299 13.681604 15.97688 22.346961 22.411429l-10.077519 42.836621 33.884738 14.146185 23.937179-37.156248c10.565636 1.593288 21.220301 1.550309 31.543414-0.046049l23.62814 37.512359 33.974789-13.969153-9.990538-43.10575c8.378831-6.185886 15.888875-13.616112 22.258956-22.166859l43.321668 9.788947 14.146185-33.885761-37.578874-23.494087C863.733365 804.748461 863.733365 794.225803 862.231151 783.880177L862.231151 783.880177zM804.186154 819.072701c-10.916631 26.101471-40.936341 38.394449-67.060325 27.471678-26.082028-10.9197-38.417985-40.913828-27.497261-67.085908 10.9197-26.081005 40.954761-38.369889 67.060325-27.450189C802.794457 762.948449 815.105854 792.944624 804.186154 819.072701L804.186154 819.072701z" p-id="9995"></path><path d="M527.204795 47.328935 79.481727 494.987534 123.14211 542.273491 207.565894 457.935664 207.565894 942.768931 592.423169 942.768931 592.423169 878.727359 271.35164 878.727359 271.35164 398.796752 527.204795 141.905964 783.047718 397.647579 783.047718 624.647593 847.018681 624.647593 847.018681 458.146465 931.429163 542.273491 974.91763 494.987534Z" p-id="9996"></path></svg>