<svg t="1650965515263" class="icon" viewBox="0 0 1024 1024" version="1.1" xmlns="http://www.w3.org/2000/svg" p-id="10771" width="128" height="128"><path d="M602.94 928c-6.17 0-12.26-1.78-17.52-5.22a31.965 31.965 0 0 1-13.96-21.03c-5.24-28.69-30.25-49.51-59.46-49.51s-54.22 20.82-59.46 49.51a32 32 0 0 1-13.96 21.03 31.97 31.97 0 0 1-24.86 4.36c-44.47-10.49-86.77-28.03-125.75-52.13a32 32 0 0 1-9.5-45.4c16.56-23.99 13.59-56.38-7.05-77.03-20.65-20.64-53.04-23.61-77.03-7.05a32.034 32.034 0 0 1-24.74 4.99 32 32 0 0 1-20.66-14.49c-24.1-38.97-41.64-81.28-52.13-125.75a32.005 32.005 0 0 1 4.36-24.86c4.8-7.34 12.4-12.39 21.03-13.96 28.69-5.24 49.51-30.25 49.51-59.46s-20.82-54.22-49.51-59.46a32 32 0 0 1-21.03-13.96 31.97 31.97 0 0 1-4.36-24.86c10.49-44.47 28.03-86.78 52.13-125.75a32 32 0 0 1 45.4-9.5c23.99 16.56 56.38 13.59 77.03-7.05 20.65-20.65 23.61-53.04 7.05-77.03a32.034 32.034 0 0 1-4.99-24.74c1.8-8.58 7.04-16.05 14.49-20.66 38.97-24.1 81.28-41.64 125.75-52.13a31.97 31.97 0 0 1 24.86 4.36c7.34 4.8 12.39 12.4 13.96 21.03 5.24 28.69 30.25 49.51 59.46 49.51s54.22-20.82 59.46-49.51a32 32 0 0 1 13.96-21.03 31.97 31.97 0 0 1 24.86-4.36c44.47 10.49 86.77 28.03 125.75 52.13a32 32 0 0 1 9.5 45.4c-16.56 23.99-13.59 56.38 7.05 77.03 20.65 20.65 53.04 23.61 77.03 7.05a32.034 32.034 0 0 1 24.74-4.99 32 32 0 0 1 20.66 14.49c24.1 38.97 41.64 81.28 52.13 125.75 2.01 8.54 0.44 17.52-4.36 24.86a31.965 31.965 0 0 1-21.03 13.96c-28.69 5.24-49.51 30.25-49.51 59.46s20.82 54.22 49.51 59.46a32 32 0 0 1 21.03 13.96 31.97 31.97 0 0 1 4.36 24.86c-10.49 44.47-28.03 86.78-52.13 125.75a32 32 0 0 1-45.4 9.5c-23.99-16.56-56.38-13.6-77.03 7.05s-23.61 53.04-7.05 77.03a32.034 32.034 0 0 1 4.99 24.74 32.034 32.034 0 0 1-14.49 20.66c-38.97 24.1-81.28 41.64-125.75 52.13-2.42 0.58-4.89 0.86-7.34 0.86zM512 788.24c48.17 0 90.79 27.53 111.39 68.87a359.408 359.408 0 0 0 53.86-22.34c-14.65-43.79-3.97-93.38 30.08-127.44 34.05-34.05 83.65-44.73 127.44-30.08 8.9-17.34 16.37-35.34 22.34-53.86-41.34-20.6-68.87-63.22-68.87-111.39s27.53-90.79 68.87-111.39a358.363 358.363 0 0 0-22.34-53.86c-43.79 14.64-93.39 3.97-127.44-30.08s-44.73-83.64-30.08-127.43a359.408 359.408 0 0 0-53.86-22.34c-20.6 41.34-63.22 68.87-111.39 68.87s-90.79-27.53-111.39-68.87a359.408 359.408 0 0 0-53.86 22.34c14.65 43.79 3.97 93.38-30.08 127.44-24.09 24.09-55.97 36.48-88.06 36.48-13.27 0-26.57-2.12-39.38-6.4a359.408 359.408 0 0 0-22.34 53.86c41.34 20.6 68.87 63.22 68.87 111.39s-27.53 90.79-68.87 111.39a358.363 358.363 0 0 0 22.34 53.86c43.79-14.65 93.38-3.97 127.44 30.08 34.05 34.05 44.73 83.65 30.08 127.44 17.34 8.9 35.34 16.37 53.86 22.34 20.6-41.35 63.22-68.88 111.39-68.88z" p-id="10772"></path><path d="M512 751.19c-63.89 0-123.96-24.88-169.13-70.06-45.18-45.18-70.06-105.24-70.06-169.13s24.88-123.96 70.06-169.13c45.18-45.18 105.24-70.06 169.13-70.06s123.96 24.88 169.13 70.06c45.18 45.18 70.06 105.24 70.06 169.13s-24.88 123.96-70.06 169.13c-45.17 45.18-105.24 70.06-169.13 70.06z m0-414.38c-96.6 0-175.19 78.59-175.19 175.19S415.4 687.19 512 687.19 687.19 608.6 687.19 512 608.6 336.81 512 336.81z" p-id="10773"></path><path d="M512 607.13c-52.45 0-95.13-42.67-95.13-95.13s42.67-95.13 95.13-95.13 95.13 42.67 95.13 95.13-42.68 95.13-95.13 95.13z m0-126.26c-17.16 0-31.13 13.96-31.13 31.13s13.96 31.13 31.13 31.13 31.13-13.96 31.13-31.13-13.97-31.13-31.13-31.13z" p-id="10774"></path><path d="M480 568.65h64v150.5h-64zM545.048 455.95l130.324-75.245 32 55.424-130.324 75.245zM316.593 436.148l32-55.424 130.324 75.245-32 55.424z" p-id="10775"></path></svg>